<svg width="48" height="48" xmlns="http://www.w3.org/2000/svg" xmlns:xlink="http://www.w3.org/1999/xlink" overflow="hidden"><defs><clipPath id="clip0"><rect x="254" y="616" width="48" height="48"/></clipPath></defs><g clip-path="url(#clip0)" transform="translate(-254 -616)"><path d="M277.99 621C267.502 621 259 629.502 259 639.99 259 650.477 267.502 658.979 277.99 658.979 288.477 658.979 296.979 650.477 296.979 639.99 296.979 639.989 296.979 639.989 296.979 639.988 296.983 629.505 288.487 621.004 278.004 621 277.999 621 277.994 621 277.99 621ZM282.59 640.896C279.823 643.658 277.039 646.444 274.24 649.255 271.86 646.864 269.475 644.479 267.085 642.1L269.475 639.709 274.24 644.474C276.552 642.128 278.853 639.798 281.139 637.484 283.425 635.172 284.69 633.93 287.06 631.639 287.126 631.573 287.198 631.506 287.276 631.439 287.351 631.375 287.418 631.303 287.475 631.223L289.9 633.614C287.084 636.414 285.356 638.133 282.589 640.895Z" fill="#FFFFFF"/></g></svg>