<svg width="58" height="58" xmlns="http://www.w3.org/2000/svg" xmlns:xlink="http://www.w3.org/1999/xlink" overflow="hidden"><defs><clipPath id="clip0"><rect x="249" y="720" width="58" height="58"/></clipPath></defs><g clip-path="url(#clip0)" transform="translate(-249 -720)"><path d="M297.941 749.785 293.772 742.535 293.772 742.233C294.138 732.206 286.306 723.781 276.279 723.416 266.252 723.05 257.827 730.882 257.461 740.908 257.445 741.35 257.445 741.792 257.461 742.233 257.438 747.95 260.072 753.352 264.591 756.854L264.591 772.14 283.682 772.14 283.682 764.89 286.643 764.89C290.58 764.89 293.772 761.699 293.773 757.761 293.773 757.721 293.772 757.68 293.772 757.64L293.772 754.015 296.43 754.015C298.001 753.833 299.391 752.021 297.941 749.785ZM281.273 731.493 282.805 729.961C283.109 729.669 283.589 729.669 283.892 729.961 284.192 730.262 284.192 730.748 283.892 731.048L282.362 732.582C282.075 732.895 281.588 732.916 281.275 732.629 280.961 732.342 280.94 731.855 281.227 731.542 281.242 731.525 281.258 731.509 281.275 731.494ZM274.129 726.849C274.129 726.424 274.474 726.079 274.899 726.079 275.325 726.079 275.67 726.424 275.67 726.849L275.67 729.016C275.67 729.441 275.325 729.786 274.899 729.786 274.474 729.786 274.129 729.441 274.129 729.016ZM265.912 729.843C266.213 729.544 266.699 729.544 267 729.843L268.532 731.375C268.815 731.693 268.786 732.18 268.468 732.463 268.176 732.722 267.736 732.722 267.445 732.463L265.913 730.935C265.611 730.634 265.611 730.146 265.912 729.844 265.912 729.844 265.913 729.844 265.913 729.843ZM263.118 739.228C262.692 739.228 262.347 738.883 262.347 738.457 262.347 738.032 262.692 737.687 263.118 737.687L265.284 737.687C265.71 737.687 266.054 738.032 266.054 738.457 266.054 738.883 265.71 739.228 265.284 739.228ZM268.535 745.518 267.004 747.05C266.686 747.332 266.199 747.304 265.917 746.986 265.657 746.694 265.657 746.254 265.917 745.962L267.449 744.43C267.753 744.138 268.232 744.138 268.536 744.43 268.836 744.731 268.836 745.217 268.536 745.518ZM274.838 752.952C273.826 752.953 272.984 752.175 272.905 751.166L276.772 751.166C276.692 752.175 275.85 752.953 274.838 752.952ZM277.502 749.927 272.175 749.927C271.682 749.927 271.283 749.528 271.283 749.036 271.283 748.543 271.682 748.144 272.175 748.144L277.502 748.144C277.995 748.144 278.394 748.543 278.394 749.036 278.394 749.528 277.995 749.927 277.502 749.927ZM278.877 746.576C278.776 746.777 278.57 746.905 278.344 746.905L271.332 746.905C271.107 746.905 270.901 746.777 270.8 746.576 270.313 745.528 269.705 744.541 268.988 743.635 268.412 742.987 267.957 742.242 267.644 741.435 267.317 740.579 267.135 739.674 267.106 738.759L267.106 738.491C267.183 734.268 270.614 730.877 274.838 730.85L274.838 730.85C279.062 730.877 282.493 734.268 282.571 738.491L282.571 738.759C282.542 739.674 282.36 740.579 282.033 741.435 281.719 742.242 281.264 742.987 280.689 743.635 279.972 744.541 279.364 745.528 278.877 746.576ZM283.894 746.933C283.594 747.232 283.108 747.232 282.807 746.933L281.275 745.4C280.976 745.099 280.976 744.614 281.275 744.313 281.58 744.023 282.058 744.023 282.363 744.313L283.895 745.845C284.194 746.146 284.194 746.632 283.895 746.933ZM286.565 739.206 284.399 739.206C283.973 739.206 283.628 738.862 283.628 738.436 283.628 738.011 283.973 737.666 284.399 737.666L286.565 737.666C286.991 737.666 287.336 738.011 287.336 738.436 287.336 738.862 286.991 739.206 286.565 739.206Z" fill="#FFFFFF"/><path d="M274.838 732.634 274.838 732.634C271.591 732.652 268.951 735.259 268.892 738.506L268.892 738.729C268.918 739.441 269.061 740.145 269.315 740.811 269.551 741.411 269.891 741.964 270.32 742.445 271.001 743.267 271.585 744.165 272.059 745.122L277.614 745.122C278.088 744.165 278.672 743.267 279.353 742.445 279.782 741.964 280.122 741.411 280.358 740.811 280.614 740.145 280.758 739.442 280.785 738.729L280.785 738.506C280.726 735.259 278.086 732.652 274.838 732.634Z" fill="#FFFFFF"/></g></svg>