<svg width="50" height="50" xmlns="http://www.w3.org/2000/svg" xmlns:xlink="http://www.w3.org/1999/xlink" overflow="hidden"><defs><clipPath id="clip0"><rect x="36" y="720" width="50" height="50"/></clipPath></defs><g clip-path="url(#clip0)" transform="translate(-36 -720)"><path d="M74.1615 727.289 75.5677 727.289 75.5677 724.167 46.4167 724.167 46.4167 727.292 47.7708 727.292C48.3438 733.069 51.6771 741.503 56.5156 744.99 51.6734 748.474 48.2917 756.907 47.7708 762.685L46.4167 762.685 46.4167 765.81 75.5667 765.81 75.5667 762.685 74.1604 762.685C73.6396 756.907 70.2542 748.474 65.4151 744.987 70.2573 741.499 73.6406 733.066 74.1615 727.289ZM71.0213 727.289C70.4403 731.786 68.7767 736.075 66.1734 739.789L55.7734 739.789C53.1913 736.063 51.5257 731.78 50.9125 727.289ZM58.3438 747.522C58.5745 747.354 58.7811 747.155 58.9578 746.931L59.9583 748.293 59.9583 751.25 51.4328 759.775C52.5745 755.08 55.2036 749.783 58.3438 747.522ZM70.4792 759.688 62.0417 751.25 62.0417 748.256 62.9979 746.96C63.1701 747.173 63.3691 747.362 63.5901 747.522 66.7073 749.769 69.325 755.014 70.4792 759.688Z" fill="#FFFFFF"/></g></svg>